<?xml version="1.0" encoding="UTF-8"?>
<svg version="1.1" xmlns="http://www.w3.org/2000/svg" width="500" height="500">
<path d="M0 0 C165 0 330 0 500 0 C500 165 500 330 500 500 C335 500 170 500 0 500 C0 335 0 170 0 0 Z " fill="#FEFEFE" transform="translate(0,0)"/>
<path d="M0 0 C29.75061427 2.28850879 54.51080972 11.94421818 74.484375 34.69042969 C87.58513719 50.37084465 94.13946921 68.14286055 98 88 C98.14695313 87.1028125 98.29390625 86.205625 98.4453125 85.28125 C102.09799952 64.96055439 110.10346964 47.47624251 124 32 C124.91845703 30.95779297 124.91845703 30.95779297 125.85546875 29.89453125 C141.55698138 13.12170007 166.24995208 0.67486724 189.31518555 -0.11328125 C192.86153092 -0.08127136 196.3943274 0.03578692 199.9375 0.1875 C201.12279297 0.21908203 202.30808594 0.25066406 203.52929688 0.28320312 C225.55889045 1.1170166 246.18719882 9.917745 263 24 C263.72703125 24.58136719 264.4540625 25.16273438 265.203125 25.76171875 C280.40744074 38.44084219 291.57413823 57.77837941 296 77 C296.22171875 77.95261719 296.4434375 78.90523438 296.671875 79.88671875 C297.97875794 86.21803676 298 91.25192436 298 98 C264.34 98 230.68 98 196 98 C196 131.66 196 165.32 196 200 C166.1582359 197.70447968 141.27002533 188.06135914 121.30078125 164.921875 C108.54996579 148.72898882 101.41187365 131.24677654 98 111 C97.84144531 111.90878906 97.68289062 112.81757813 97.51953125 113.75390625 C93.66107447 134.53841098 86.36515648 152.25357848 72 168 C71.30390625 168.77730469 70.6078125 169.55460938 69.890625 170.35546875 C53.82975601 187.38350686 29.14984963 199.29735396 5.68359375 200.2734375 C-24.8575635 200.97375368 -50.58574717 191.99923004 -73 171 C-87.15836239 157.36978312 -95.61828416 140.30334516 -100.375 121.375 C-100.62697144 120.40941162 -100.62697144 120.40941162 -100.8840332 119.42431641 C-102.4355572 112.68344339 -102 107.35215392 -102 100 C-68.34 100 -34.68 100 0 100 C0 67 0 34 0 0 Z " fill="#000000" transform="translate(152,150)"/>
</svg>
